<svg xmlns="http://www.w3.org/2000/svg" width="44" height="40" viewBox="0 0 44 40">
  <metadata><?xpacket begin="﻿" id="W5M0MpCehiHzreSzNTczkc9d"?>
<x:xmpmeta xmlns:x="adobe:ns:meta/" x:xmptk="Adobe XMP Core 5.6-c138 79.159824, 2016/09/14-01:09:01        ">
   <rdf:RDF xmlns:rdf="http://www.w3.org/1999/02/22-rdf-syntax-ns#">
      <rdf:Description rdf:about=""/>
   </rdf:RDF>
</x:xmpmeta>
                                                                                                    
                                                                                                    
                                                                                                    
                                                                                                    
                                                                                                    
                                                                                                    
                                                                                                    
                                                                                                    
                                                                                                    
                                                                                                    
                                                                                                    
                                                                                                    
                                                                                                    
                                                                                                    
                                                                                                    
                                                                                                    
                                                                                                    
                                                                                                    
                                                                                                    
                                                                                                    
                           
<?xpacket end="w"?></metadata>
<defs>
    <style>
      .cls-1 {
        fill: #999;
        fill-rule: evenodd;
      }
    </style>
  </defs>
  <path id="圆角矩形_1_拷贝_2" data-name="圆角矩形 1 拷贝 2" class="cls-1" d="M824.714,382.357l-5.657,5.666a0.992,0.992,0,0,1-.723.29,1.038,1.038,0,0,1-.753-0.3l-5.911-5.919a1.046,1.046,0,0,1,1.479-1.48l4.395,4.4c0.011-.231.033-0.459,0.033-0.693a17.04,17.04,0,1,0-3.408,10.178l0.048,0.035a0.954,0.954,0,0,1,.821-0.512,1.011,1.011,0,0,1,.976,1.042,1.064,1.064,0,0,1-.214.623l0.01,0.006c-0.017.023-.037,0.042-0.054,0.064s-0.033.042-.052,0.062a18.978,18.978,0,1,1,3.956-11.563c0,0.118-.015.233-0.017,0.351l3.657-3.663A1,1,0,1,1,824.714,382.357Z" transform="translate(-781.313 -364.265)"/>
</svg>
