<svg xmlns="http://www.w3.org/2000/svg" width="48" height="48" viewBox="0 0 48 48">
  <metadata><?xpacket begin="﻿" id="W5M0MpCehiHzreSzNTczkc9d"?>
<x:xmpmeta xmlns:x="adobe:ns:meta/" x:xmptk="Adobe XMP Core 5.6-c138 79.159824, 2016/09/14-01:09:01        ">
   <rdf:RDF xmlns:rdf="http://www.w3.org/1999/02/22-rdf-syntax-ns#">
      <rdf:Description rdf:about=""/>
   </rdf:RDF>
</x:xmpmeta>
                                                                                                    
                                                                                                    
                                                                                                    
                                                                                                    
                                                                                                    
                                                                                                    
                                                                                                    
                                                                                                    
                                                                                                    
                                                                                                    
                                                                                                    
                                                                                                    
                                                                                                    
                                                                                                    
                                                                                                    
                                                                                                    
                                                                                                    
                                                                                                    
                                                                                                    
                                                                                                    
                           
<?xpacket end="w"?></metadata>
<defs>
    <style>
      .cls-1 {
        fill: #999;
        fill-rule: evenodd;
      }
    </style>
  </defs>
  <path id="圆角矩形_11_拷贝_3" data-name="圆角矩形 11 拷贝 3" class="cls-1" d="M2724,2448a24,24,0,1,1-24,24A24,24,0,0,1,2724,2448Zm0,1a23,23,0,1,1-23,23A23,23,0,0,1,2724,2449Zm7.3,23.39-9.9,9.9a1.008,1.008,0,0,1-1.42,0,1,1,0,0,1,0-1.41l9.2-9.19-9.2-9.2a1,1,0,0,1,0-1.41,1.008,1.008,0,0,1,1.42,0l9.9,9.9A1,1,0,0,1,2731.3,2472.39Z" transform="translate(-2700 -2448)"/>
</svg>
