<svg xmlns="http://www.w3.org/2000/svg" width="127.87" height="112" viewBox="0 0 127.87 112">
  <metadata><?xpacket begin="﻿" id="W5M0MpCehiHzreSzNTczkc9d"?>
<x:xmpmeta xmlns:x="adobe:ns:meta/" x:xmptk="Adobe XMP Core 5.6-c138 79.159824, 2016/09/14-01:09:01        ">
   <rdf:RDF xmlns:rdf="http://www.w3.org/1999/02/22-rdf-syntax-ns#">
      <rdf:Description rdf:about=""/>
   </rdf:RDF>
</x:xmpmeta>
                                                                                                    
                                                                                                    
                                                                                                    
                                                                                                    
                                                                                                    
                                                                                                    
                                                                                                    
                                                                                                    
                                                                                                    
                                                                                                    
                                                                                                    
                                                                                                    
                                                                                                    
                                                                                                    
                                                                                                    
                                                                                                    
                                                                                                    
                                                                                                    
                                                                                                    
                                                                                                    
                           
<?xpacket end="w"?></metadata>
<defs>
    <style>
      .cls-1 {
        fill: #ccc;
        fill-rule: evenodd;
      }
    </style>
  </defs>
  <path id="已过期" class="cls-1" d="M2637.08,2488.48a56.011,56.011,0,0,1-90.27,52.12l-8.13,4.69-2-3.47,6.91-3.98h0l3.65-2.11h0l1.37-.79h0l0.91-.53h0l94.55-54.59,2,3.47Zm-6.13,3.54-78.01,45.04A49.479,49.479,0,0,0,2630.95,2492.02Zm2.37-1.37-1.42.82a50.484,50.484,0,0,1-79.92,46.14l-1.42.82A51.989,51.989,0,0,0,2633.32,2490.65Zm-21.29,28.58-1.85-1.32-2.21.89,0.89-2.05-1.52-1.86,2.47,0.2,1.2-2.19,0.77,2.16,2.13,0.53-1.78,1.2Zm-9.74,12.43-2.51-1.83-2.95,1.16,1.15-2.77-2.07-2.57,3.33,0.32,1.56-2.97,1.08,2.97,2.87,0.75-2.37,1.61Zm-15.59,2.2-1.85-1.32-2.21.88,0.89-2.04-1.52-1.87,2.47,0.2,1.2-2.18,0.77,2.16,2.13,0.52-1.78,1.2Zm-17.72-42.8a30.389,30.389,0,0,1,5.43,1.2l-0.61,2.26a25.854,25.854,0,0,0-5.42-1.39Zm14.9,6.9a35.47,35.47,0,0,0-5.04-2.55l0.99-1.93a41.108,41.108,0,0,1,5.04,2.35Zm6.05,2.13-2.8,1.62-1.54-1.66c0.95-.44,1.82-0.89,2.63-1.35a0.757,0.757,0,0,0,.4-1.13l-4.85-8.39-7.42,4.28-1.1-1.91,7.42-4.28-1.85-3.21,2-1.15,1.84,3.2,2.79-1.6,1.1,1.91-2.78,1.61,5.12,8.87Q2592.03,2498.88,2589.93,2500.09Zm19.32-6.78-2.17-.49-0.71,1.52a28.124,28.124,0,0,0-4.05-2.18l0.95-1.85a32.524,32.524,0,0,1,3.71,1.71,14.455,14.455,0,0,0-2.13-7.81l-5.74-9.93,7.36-4.25,9.41,16.3a2.079,2.079,0,0,1-.86,3.21l-2.16,1.25-1.66-1.62c1.03-.53,1.74-0.9,2.13-1.12a0.826,0.826,0,0,0,.17-1.29l-2.16-3.74-3.54,2.04A15.629,15.629,0,0,1,2609.25,2493.31Zm-3.67-20.27-3.41,1.97,1.84,3.18,3.4-1.97Zm4.71,8.17-1.84-3.2-3.41,1.97,1.85,3.2Zm-9.9,16.97-2.21-.22a17.655,17.655,0,0,0,.6-5.01l2.03-.14A19.719,19.719,0,0,1,2600.39,2498.18Zm-5.28-5.93,1.35-.78-4.81-8.34-1.13.65-1.05-1.83,1.12-.64-1.24-2.14,1.92-1.11,1.23,2.14,3.6-2.07-1.21-2.1,1.91-1.11,1.21,2.1,1.08-.62,1.06,1.83-1.08.62,4.81,8.34,1.18-.69,1.06,1.83-9.96,5.75Zm2.04-12.3-3.59,2.08,0.95,1.64,3.59-2.07Zm1.95,3.37-3.6,2.08,0.94,1.62,3.59-2.08Zm-0.73,7.05,3.6-2.08-0.94-1.62-3.6,2.07Zm-26.05,10.35-1.08-1.87,4.71-2.72,4.55,7.88a1.336,1.336,0,0,1,.51.12,6.566,6.566,0,0,0,2.29.31,9.079,9.079,0,0,0,3.18-1.17q2.475-1.365,4.41-2.49l2.85-1.67c0.96-.61,1.7-1.09,2.2-1.44l0.67,2.27-4.4,2.55q-1.08.615-3.89,2.19a18.24,18.24,0,0,1-3.66,1.64,5.751,5.751,0,0,1-3.12-.14,1.377,1.377,0,0,0-1.14-.04c-0.44.26-.65,1.66-0.61,4.21l-2.24-.51a10.242,10.242,0,0,1,.98-4.89l-3.39-5.86Zm-23.56,5.57-1.09-1.89,15.77-9.11,5.04,8.73-12.82,7.4,3.31,5.74a1.17,1.17,0,0,0,1.81.5l10.44-6.02a1.7,1.7,0,0,0,.76-0.94c0.14-.49-0.36-1.86-1.52-4.11l2.3-.49c1.25,2.75,1.81,4.49,1.67,5.24a3.556,3.556,0,0,1-1.57,1.9l-11.53,6.66q-2.58,1.485-4.14-1.21l-6.25-10.83,1.99-1.15,1.64,2.82,10.82-6.25-2.85-4.95Zm-15.74-.46-0.91.53h0l-1.37.79h0l-3.65,2.11h0l-6.91,3.98-2-3.46,8.13-4.69a56.008,56.008,0,0,1,90.27-52.12l8.99-5.19,2,3.46-94.55,54.59h0Zm79.8-50.69a51.989,51.989,0,0,0-82.76,47.78l1.43-.82a50.476,50.476,0,0,1,79.91-46.14Zm-2.37,1.37a49.47,49.47,0,0,0-78.01,45.04Zm-58.23,17.33,1.85,1.31,2.21-.88-0.89,2.04,1.52,1.87-2.47-.2-1.2,2.18-0.77-2.16-2.13-.52,1.78-1.2Zm9.74-12.43,2.51,1.83,2.95-1.17-1.15,2.78,2.08,2.57-3.33-.32-1.57,2.96-1.08-2.96-2.87-.75,2.37-1.61Zm15.59-2.2,1.85,1.32,2.21-.89-0.89,2.05,1.52,1.87-2.47-.21-1.2,2.19-0.77-2.16-2.13-.53,1.78-1.2Z" transform="translate(-2518.19 -2440.78)"/>
</svg>
