<svg xmlns="http://www.w3.org/2000/svg" width="47" height="45" viewBox="0 0 47 45">
  <metadata><?xpacket begin="﻿" id="W5M0MpCehiHzreSzNTczkc9d"?>
<x:xmpmeta xmlns:x="adobe:ns:meta/" x:xmptk="Adobe XMP Core 5.6-c138 79.159824, 2016/09/14-01:09:01        ">
   <rdf:RDF xmlns:rdf="http://www.w3.org/1999/02/22-rdf-syntax-ns#">
      <rdf:Description rdf:about=""/>
   </rdf:RDF>
</x:xmpmeta>
                                                                                                    
                                                                                                    
                                                                                                    
                                                                                                    
                                                                                                    
                                                                                                    
                                                                                                    
                                                                                                    
                                                                                                    
                                                                                                    
                                                                                                    
                                                                                                    
                                                                                                    
                                                                                                    
                                                                                                    
                                                                                                    
                                                                                                    
                                                                                                    
                                                                                                    
                                                                                                    
                           
<?xpacket end="w"?></metadata>
<defs>
    <style>
      .cls-1 {
        fill: #ffffff;
        fill-rule: evenodd;
      }
    </style>
  </defs>
  <path id="圆角矩形_781_拷贝_4" data-name="圆角矩形 781 拷贝 4" class="cls-1" d="M1255,3641a2,2,0,1,1,2-2A2.006,2.006,0,0,1,1255,3641Zm-1.24,1.76c0.05-.03.1-0.07,0.16-0.1a1.336,1.336,0,0,1,.18-0.07,1.127,1.127,0,0,1,.18-0.03,0.673,0.673,0,0,1,.2.01c0.04,0.01.08,0,.12,0.01a0.169,0.169,0,0,1,.06.03,1.3,1.3,0,0,1,.17.08,1.038,1.038,0,0,1,.17.12,0.219,0.219,0,0,0,.05.03c0.02,0.03.04,0.07,0.06,0.1a0.939,0.939,0,0,1,.12.18,1.093,1.093,0,0,1,.05.17,0.711,0.711,0,0,1,.04.2,0.592,0.592,0,0,1-.01.19,0.333,0.333,0,0,1-.01.14l-5.31,26.11c0,0.02.01,0.05,0.01,0.07a0.985,0.985,0,0,1-.76.95,1.419,1.419,0,0,1-.22.05H1219c-0.01,0-.02-0.01-0.03-0.01a0.929,0.929,0,0,1-.29-0.05c-0.03-.02-0.07-0.02-0.1-0.04a0.858,0.858,0,0,1-.2-0.13,1.059,1.059,0,0,0-.12-0.1,0.864,0.864,0,0,1-.1-0.16,0.933,0.933,0,0,1-.1-0.2,0.142,0.142,0,0,0-.02-0.04l-5.45-26.12c-0.01-.04,0-0.09-0.01-0.13,0-.07-0.01-0.13-0.01-0.19a1.416,1.416,0,0,1,.04-0.2,0.758,0.758,0,0,1,.06-0.16,0.567,0.567,0,0,1,.12-0.18,0.333,0.333,0,0,1,.06-0.1,0.321,0.321,0,0,1,.05-0.03,1.038,1.038,0,0,1,.17-0.12,0.982,0.982,0,0,1,.18-0.08,0.133,0.133,0,0,1,.05-0.03c0.04-.01.08,0,0.12-0.01a0.741,0.741,0,0,1,.21-0.01,1.127,1.127,0,0,1,.18.03,1.458,1.458,0,0,1,.19.07,1.3,1.3,0,0,1,.15.1,0.834,0.834,0,0,1,.12.08l10.21,10.04,8.8-14.76c0.01-.02.04-0.03,0.05-0.05a0.628,0.628,0,0,1,.11-0.12,0.658,0.658,0,0,1,.15-0.14,0.176,0.176,0,0,1,.05-0.04,0.245,0.245,0,0,1,.12-0.04,0.865,0.865,0,0,1,.17-0.07,1.275,1.275,0,0,1,.19-0.01,0.615,0.615,0,0,1,.19.02,0.737,0.737,0,0,1,.14.04,1.041,1.041,0,0,1,.16.06,0.374,0.374,0,0,1,.07.06c0.01,0.01.03,0.02,0.04,0.03a1,1,0,0,1,.25.3l8.58,14.51,10.1-10.18A1.047,1.047,0,0,1,1253.76,3642.76Zm-9.34,12.22a1,1,0,0,1-.45.68,0.973,0.973,0,0,1-.68.11,0.952,0.952,0,0,1-.77-0.29,1,1,0,0,1-.26-0.85l-8.14-13.76-8.33,13.95a0.959,0.959,0,0,1-.26.85,0.976,0.976,0,0,1-.78.28,0.936,0.936,0,0,1-.69-0.1,0.957,0.957,0,0,1-.46-0.68l-8.39-8.25,4.61,22.08h28.34l4.56-22.38ZM1234,3636a2,2,0,1,1,2-2A2.006,2.006,0,0,1,1234,3636Zm-22,5a2,2,0,1,1,2-2A2.006,2.006,0,0,1,1212,3641Zm7,34h30a1,1,0,0,1,0,2h-30A1,1,0,0,1,1219,3675Z" transform="translate(-1210 -3632)"/>
</svg>
