<svg xmlns="http://www.w3.org/2000/svg" width="18" height="24" viewBox="0 0 18 24">
  <metadata><?xpacket begin="﻿" id="W5M0MpCehiHzreSzNTczkc9d"?>
<x:xmpmeta xmlns:x="adobe:ns:meta/" x:xmptk="Adobe XMP Core 5.6-c138 79.159824, 2016/09/14-01:09:01        ">
   <rdf:RDF xmlns:rdf="http://www.w3.org/1999/02/22-rdf-syntax-ns#">
      <rdf:Description rdf:about=""/>
   </rdf:RDF>
</x:xmpmeta>
                                                                                                    
                                                                                                    
                                                                                                    
                                                                                                    
                                                                                                    
                                                                                                    
                                                                                                    
                                                                                                    
                                                                                                    
                                                                                                    
                                                                                                    
                                                                                                    
                                                                                                    
                                                                                                    
                                                                                                    
                                                                                                    
                                                                                                    
                                                                                                    
                                                                                                    
                                                                                                    
                           
<?xpacket end="w"?></metadata>
<defs>
    <style>
      .cls-1 {
        fill: #fff;
        fill-rule: evenodd;
      }
    </style>
  </defs>
  <path id="圆角矩形_2663" data-name="圆角矩形 2663" class="cls-1" d="M1198.71,2114.71a0.986,0.986,0,0,1-1.1.21,0.885,0.885,0,0,1-.17-0.12,0.671,0.671,0,0,1-.14-0.09l-7.32-7.29-7.25,7.26a0.99,0.99,0,0,1-.36.24,0.955,0.955,0,0,1-1.08-.21,0.965,0.965,0,0,1-.29-0.72V2092a1,1,0,0,1,1-1h16a1,1,0,0,1,1,1v21.98A0.972,0.972,0,0,1,1198.71,2114.71ZM1197,2093h-14v18.6l6.16-6.16a0.492,0.492,0,0,1,.1-0.15,1.051,1.051,0,0,1,1.45,0,0.428,0.428,0,0,1,.09.13l6.2,6.17V2093Z" transform="translate(-1181 -2091)"/>
</svg>
