<svg xmlns="http://www.w3.org/2000/svg" xmlns:xlink="http://www.w3.org/1999/xlink" preserveAspectRatio="xMidYMid" width="35.969" height="35.97" viewBox="0 0 35.969 35.97">
  <defs>
    <style>
      .cls-1 {
        fill: #f04a4c;
        fill-rule: evenodd;
      }
    </style>
  </defs>
  <path d="M30.697,30.698 C23.667,37.727 12.271,37.727 5.241,30.698 C-1.788,23.668 -1.788,12.272 5.241,5.242 C12.271,-1.787 23.667,-1.787 30.697,5.242 C37.726,12.272 37.726,23.668 30.697,30.698 ZM26.361,9.578 C26.007,9.225 25.463,9.209 25.072,9.495 L25.051,9.474 L15.141,15.142 L9.473,25.052 L9.494,25.073 C9.208,25.464 9.224,26.008 9.577,26.362 C9.931,26.715 10.475,26.731 10.866,26.445 L10.887,26.466 L20.797,20.798 L26.465,10.888 L26.444,10.867 C26.730,10.476 26.714,9.932 26.361,9.578 ZM16.555,19.384 C15.774,18.603 15.774,17.337 16.555,16.556 C17.336,15.775 18.602,15.775 19.383,16.556 C20.164,17.337 20.164,18.603 19.383,19.384 C18.602,20.165 17.336,20.165 16.555,19.384 Z" class="cls-1"/>
</svg>
