<svg xmlns="http://www.w3.org/2000/svg" width="31.97" height="32" viewBox="0 0 31.97 32">
  <metadata><?xpacket begin="﻿" id="W5M0MpCehiHzreSzNTczkc9d"?>
<x:xmpmeta xmlns:x="adobe:ns:meta/" x:xmptk="Adobe XMP Core 5.6-c138 79.159824, 2016/09/14-01:09:01        ">
   <rdf:RDF xmlns:rdf="http://www.w3.org/1999/02/22-rdf-syntax-ns#">
      <rdf:Description rdf:about=""/>
   </rdf:RDF>
</x:xmpmeta>
                                                                                                    
                                                                                                    
                                                                                                    
                                                                                                    
                                                                                                    
                                                                                                    
                                                                                                    
                                                                                                    
                                                                                                    
                                                                                                    
                                                                                                    
                                                                                                    
                                                                                                    
                                                                                                    
                                                                                                    
                                                                                                    
                                                                                                    
                                                                                                    
                                                                                                    
                                                                                                    
                           
<?xpacket end="w"?></metadata>
<defs>
    <style>
      .cls-1 {
        fill: #f04a4c;
        fill-rule: evenodd;
      }
    </style>
  </defs>
  <path id="点赞" class="cls-1" d="M1545.97,3698c-0.25,1.06-1.35,3-3,3H1529a3,3,0,0,1-3-3v-17.43a7.494,7.494,0,0,0,7-7.48c0-.17-0.02-0.33-0.03-0.5h0.04c0-.03-0.01-0.06-0.01-0.09a3.5,3.5,0,0,1,7,0c0,0.03-.01.06-0.01,0.09H1540V3678a2,2,0,0,0,2,2h4.97a3,3,0,0,1,3,3Zm-24.97,3a3,3,0,0,1-3-3v-15a3,3,0,0,1,6,0v15A3,3,0,0,1,1521,3701Z" transform="translate(-1518 -3669)"/>
</svg>
