<svg xmlns="http://www.w3.org/2000/svg" width="80.28" height="25" viewBox="0 0 80.28 25">
  <defs>
    <style>
      .cls-1 {
        fill: #ccc;
        fill-rule: evenodd;
      }
    </style>
  </defs>
  <path id="椭圆_1" data-name="椭圆 1" class="cls-1" d="M3205.78,1304.26a3.95,3.95,0,0,1-5.28,1.94l-34.42-16.22-34.52,16.1a4,4,0,0,1-3.38-7.25l36.26-16.91a3.765,3.765,0,0,1,.64-0.23,0.355,0.355,0,0,1,.1-0.02c0.08-.02.17-0.04,0.26-0.06l0.19-.03a1.225,1.225,0,0,0,.19-0.02c0.11-.01.21-0.01,0.31-0.01h0.09a3.96,3.96,0,0,1,1.26.24,1.122,1.122,0,0,1,.13.05c0.07,0.03.13,0.05,0.2,0.08a0.038,0.038,0,0,1,.02.02,0.149,0.149,0,0,1,.07.03l35.96,16.94A4.043,4.043,0,0,1,3205.78,1304.26Z" transform="translate(-3125.88 -1281.56)"/>
</svg>
