<svg xmlns="http://www.w3.org/2000/svg" width="14" height="16" viewBox="0 0 14 16">
  <metadata><?xpacket begin="﻿" id="W5M0MpCehiHzreSzNTczkc9d"?>
<x:xmpmeta xmlns:x="adobe:ns:meta/" x:xmptk="Adobe XMP Core 5.6-c138 79.159824, 2016/09/14-01:09:01        ">
   <rdf:RDF xmlns:rdf="http://www.w3.org/1999/02/22-rdf-syntax-ns#">
      <rdf:Description rdf:about=""/>
   </rdf:RDF>
</x:xmpmeta>
                                                                                                    
                                                                                                    
                                                                                                    
                                                                                                    
                                                                                                    
                                                                                                    
                                                                                                    
                                                                                                    
                                                                                                    
                                                                                                    
                                                                                                    
                                                                                                    
                                                                                                    
                                                                                                    
                                                                                                    
                                                                                                    
                                                                                                    
                                                                                                    
                                                                                                    
                                                                                                    
                           
<?xpacket end="w"?></metadata>
<defs>
    <style>
      .cls-1 {
        fill: #f04a4c;
        fill-rule: evenodd;
      }
    </style>
  </defs>
  <path id="圆角矩形_2662_拷贝_2" data-name="圆角矩形 2662 拷贝 2" class="cls-1" d="M1642,611a1,1,0,0,1,1,1v10a1,1,0,0,1-2,0V612A1,1,0,0,1,1642,611Zm6-4a1,1,0,0,1,1,1v14a1,1,0,0,1-2,0V608A1,1,0,0,1,1648,607Zm6,8a1,1,0,0,1,1,1v6a1,1,0,0,1-2,0v-6A1,1,0,0,1,1654,615Z" transform="translate(-1641 -607)"/>
</svg>
