<svg xmlns="http://www.w3.org/2000/svg" width="30" height="30" viewBox="0 0 30 30">
  <metadata><?xpacket begin="﻿" id="W5M0MpCehiHzreSzNTczkc9d"?>
<x:xmpmeta xmlns:x="adobe:ns:meta/" x:xmptk="Adobe XMP Core 5.6-c138 79.159824, 2016/09/14-01:09:01        ">
   <rdf:RDF xmlns:rdf="http://www.w3.org/1999/02/22-rdf-syntax-ns#">
      <rdf:Description rdf:about=""/>
   </rdf:RDF>
</x:xmpmeta>
                                                                                                    
                                                                                                    
                                                                                                    
                                                                                                    
                                                                                                    
                                                                                                    
                                                                                                    
                                                                                                    
                                                                                                    
                                                                                                    
                                                                                                    
                                                                                                    
                                                                                                    
                                                                                                    
                                                                                                    
                                                                                                    
                                                                                                    
                                                                                                    
                                                                                                    
                                                                                                    
                           
<?xpacket end="w"?></metadata>
<defs>
    <style>
      .cls-1 {
        fill: #fff;
        fill-rule: evenodd;
      }
    </style>
  </defs>
  <path id="圆角矩形_4" data-name="圆角矩形 4" class="cls-1" d="M408.1,1153.01H429.9a3.913,3.913,0,0,1,4.089,3.63v22.72a3.913,3.913,0,0,1-4.089,3.63H408.1a3.912,3.912,0,0,1-4.089-3.63L404,1157A4.216,4.216,0,0,1,408.1,1153.01ZM422,1153h3v30h-3v-30Zm7,22h5v2h-5v-2Zm-25,0h18v2H404v-2Zm0-9h18v2H404v-2Zm0-8h18v2H404v-2Zm9-5,2,0.01,0,23.99h-2v-24Zm0,24h2l-2,6h-2Z" transform="translate(-404 -1153)"/>
</svg>
