<svg id="_15右" data-name="15右" xmlns="http://www.w3.org/2000/svg" width="43.37" height="38" viewBox="0 0 43.37 38">
  <metadata><?xpacket begin="﻿" id="W5M0MpCehiHzreSzNTczkc9d"?>
<x:xmpmeta xmlns:x="adobe:ns:meta/" x:xmptk="Adobe XMP Core 5.6-c138 79.159824, 2016/09/14-01:09:01        ">
   <rdf:RDF xmlns:rdf="http://www.w3.org/1999/02/22-rdf-syntax-ns#">
      <rdf:Description rdf:about=""/>
   </rdf:RDF>
</x:xmpmeta>
                                                                                                    
                                                                                                    
                                                                                                    
                                                                                                    
                                                                                                    
                                                                                                    
                                                                                                    
                                                                                                    
                                                                                                    
                                                                                                    
                                                                                                    
                                                                                                    
                                                                                                    
                                                                                                    
                                                                                                    
                                                                                                    
                                                                                                    
                                                                                                    
                                                                                                    
                                                                                                    
                           
<?xpacket end="w"?></metadata>
<defs>
    <style>
      .cls-1, .cls-2 {
        fill: #999;
      }

      .cls-1 {
        fill-rule: evenodd;
      }

      .cls-2 {
        font-size: 20px;
        text-anchor: middle;
        font-family: Arial;
        text-transform: uppercase;
      }
    </style>
  </defs>
  <path id="圆角矩形_1_拷贝_2" data-name="圆角矩形 1 拷贝 2" class="cls-1" d="M2474.71,884.357l-5.65,5.664a1.008,1.008,0,0,1-.73.291,1.041,1.041,0,0,1-.75-0.3l-5.91-5.919a1.047,1.047,0,1,1,1.48-1.48l4.39,4.4c0.01-.231.04-0.459,0.04-0.693a17.044,17.044,0,1,0-3.41,10.178l0.04,0.035a0.972,0.972,0,0,1,.83-0.512,1.012,1.012,0,0,1,.97,1.042,1.1,1.1,0,0,1-.21.623l0.01,0.007c-0.02.022-.04,0.041-0.06,0.063a0.252,0.252,0,0,1-.05.062,18.974,18.974,0,1,1,3.96-11.563c0,0.118-.02.233-0.02,0.351l3.66-3.664A1,1,0,1,1,2474.71,884.357Z" transform="translate(-2431.63 -867.25)"/>
  <text id="_15" data-name="15" class="cls-2" x="17.204" y="26.417">15</text>
</svg>
