<svg xmlns="http://www.w3.org/2000/svg" width="96" height="96" viewBox="0 0 96 96">
  <metadata><?xpacket begin="﻿" id="W5M0MpCehiHzreSzNTczkc9d"?>
<x:xmpmeta xmlns:x="adobe:ns:meta/" x:xmptk="Adobe XMP Core 5.6-c138 79.159824, 2016/09/14-01:09:01        ">
   <rdf:RDF xmlns:rdf="http://www.w3.org/1999/02/22-rdf-syntax-ns#">
      <rdf:Description rdf:about=""/>
   </rdf:RDF>
</x:xmpmeta>
                                                                                                    
                                                                                                    
                                                                                                    
                                                                                                    
                                                                                                    
                                                                                                    
                                                                                                    
                                                                                                    
                                                                                                    
                                                                                                    
                                                                                                    
                                                                                                    
                                                                                                    
                                                                                                    
                                                                                                    
                                                                                                    
                                                                                                    
                                                                                                    
                                                                                                    
                                                                                                    
                           
<?xpacket end="w"?></metadata>
<defs>
    <style>
      .cls-1 {
        fill: #f04a4c;
        fill-rule: evenodd;
      }
    </style>
  </defs>
  <path id="听" class="cls-1" d="M505.08,329.02a48,48,0,1,1-48,48A48,48,0,0,1,505.08,329.02ZM505,331a46,46,0,1,1-46,46A46,46,0,0,1,505,331Zm19.375,46.013a1.713,1.713,0,0,1-.876,1.48v0.029l-27.93,16.92-0.027-.016a1.648,1.648,0,0,1-.828.246,1.717,1.717,0,0,1-1.7-1.688l-0.01,0V360.046l0,0a1.721,1.721,0,0,1,1.711-1.716,1.655,1.655,0,0,1,.816.237l0.026-.015L523.5,375.493v0.04A1.713,1.713,0,0,1,524.375,377.013Z" transform="translate(-457.094 -329.031)"/>
</svg>
