<svg xmlns="http://www.w3.org/2000/svg" xmlns:xlink="http://www.w3.org/1999/xlink" preserveAspectRatio="xMidYMid" width="36" height="36" viewBox="0 0 36 36">
  <defs>
    <style>
      .cls-1 {
        fill: #f04a4c;
        fill-rule: evenodd;
      }
    </style>
  </defs>
  <path d="M17.997,35.999 C8.056,35.999 -0.002,27.940 -0.002,18.000 C-0.002,8.058 8.056,-0.001 17.997,-0.001 C27.939,-0.001 35.997,8.058 35.997,18.000 C35.997,27.940 27.939,35.999 17.997,35.999 ZM17.997,1.999 C9.160,1.999 1.997,9.163 1.997,18.000 C1.997,26.836 9.160,33.999 17.997,33.999 C26.834,33.999 33.997,26.836 33.997,18.000 C33.997,9.163 26.834,1.999 17.997,1.999 ZM24.691,18.576 L14.898,24.919 L14.889,24.913 C14.802,24.966 14.707,25.005 14.599,25.005 C14.273,25.005 14.009,24.723 14.001,24.372 L13.998,24.370 L13.998,11.649 L13.998,11.649 C14.001,11.293 14.268,11.005 14.599,11.005 C14.705,11.005 14.798,11.042 14.885,11.094 L14.894,11.088 L24.691,17.440 L24.691,17.455 C24.870,17.567 24.997,17.769 24.997,18.010 C24.997,18.251 24.870,18.452 24.691,18.565 L24.691,18.576 Z" class="cls-1"/>
</svg>
