<svg id="_15左" data-name="15左" xmlns="http://www.w3.org/2000/svg" width="45.16" height="39.563" viewBox="0 0 45.16 39.563">
  <metadata><?xpacket begin="﻿" id="W5M0MpCehiHzreSzNTczkc9d"?>
<x:xmpmeta xmlns:x="adobe:ns:meta/" x:xmptk="Adobe XMP Core 5.6-c138 79.159824, 2016/09/14-01:09:01        ">
   <rdf:RDF xmlns:rdf="http://www.w3.org/1999/02/22-rdf-syntax-ns#">
      <rdf:Description rdf:about=""/>
   </rdf:RDF>
</x:xmpmeta>
                                                                                                    
                                                                                                    
                                                                                                    
                                                                                                    
                                                                                                    
                                                                                                    
                                                                                                    
                                                                                                    
                                                                                                    
                                                                                                    
                                                                                                    
                                                                                                    
                                                                                                    
                                                                                                    
                                                                                                    
                                                                                                    
                                                                                                    
                                                                                                    
                                                                                                    
                                                                                                    
                           
<?xpacket end="w"?></metadata>
<defs>
    <style>
      .cls-1, .cls-2 {
        fill: #999;
      }

      .cls-1 {
        fill-rule: evenodd;
      }

      .cls-2 {
        font-size: 20px;
        text-anchor: middle;
        font-family: Arial;
        text-transform: uppercase;
      }
    </style>
  </defs>
  <path id="圆角矩形_1_拷贝" data-name="圆角矩形 1 拷贝" class="cls-1" d="M1850.12,905.442a19.737,19.737,0,0,1-15.7-7.787,1.036,1.036,0,0,1,.68-1.813,1,1,0,0,1,.84.481l0.05-.034a17.673,17.673,0,1,0-3.58-10.633c0,0.269.03,0.532,0.04,0.8l4.63-4.622a1.085,1.085,0,0,1,1.53,1.539l-6.15,6.156a1.09,1.09,0,0,1-.79.315,1.031,1.031,0,0,1-.75-0.3l-5.89-5.891a1.04,1.04,0,1,1,1.47-1.472l3.85,3.847c0-.123-0.02-0.244-0.02-0.368A19.79,19.79,0,1,1,1850.12,905.442Z" transform="translate(-1824.75 -865.875)"/>
  <text id="_15" data-name="15" class="cls-2" x="26.083" y="26.794">15</text>
</svg>
