<svg xmlns="http://www.w3.org/2000/svg" width="30" height="27.25" viewBox="0 0 30 27.25">
  <metadata><?xpacket begin="﻿" id="W5M0MpCehiHzreSzNTczkc9d"?>
<x:xmpmeta xmlns:x="adobe:ns:meta/" x:xmptk="Adobe XMP Core 5.6-c138 79.159824, 2016/09/14-01:09:01        ">
   <rdf:RDF xmlns:rdf="http://www.w3.org/1999/02/22-rdf-syntax-ns#">
      <rdf:Description rdf:about=""/>
   </rdf:RDF>
</x:xmpmeta>
                                                                                                    
                                                                                                    
                                                                                                    
                                                                                                    
                                                                                                    
                                                                                                    
                                                                                                    
                                                                                                    
                                                                                                    
                                                                                                    
                                                                                                    
                                                                                                    
                                                                                                    
                                                                                                    
                                                                                                    
                                                                                                    
                                                                                                    
                                                                                                    
                                                                                                    
                                                                                                    
                           
<?xpacket end="w"?></metadata>
<defs>
    <style>
      .cls-1 {
        fill: #fff;
        fill-rule: evenodd;
      }
    </style>
  </defs>
  <path id="椭圆_1" data-name="椭圆 1" class="cls-1" d="M428.668,1274.2l1.048,2.98-0.026.03a0.884,0.884,0,0,1,.039.2,0.841,0.841,0,0,1-.833.85,0.825,0.825,0,0,1-.221-0.05l-0.013.02-0.064-.03-0.056-.03-3.968-1.82a16.7,16.7,0,0,1-5.574.95c-8.284,0-15-5.89-15-13.15s6.716-13.15,15-13.15,15,5.89,15,13.15A12.543,12.543,0,0,1,428.668,1274.2Zm-15.5-14.72a2.55,2.55,0,1,0,2.5,2.55A2.524,2.524,0,0,0,413.167,1259.48Zm11,0.02a2.53,2.53,0,1,0,2.5,2.53A2.513,2.513,0,0,0,424.167,1259.5Z" transform="translate(-404 -1251)"/>
</svg>
