<svg xmlns="http://www.w3.org/2000/svg" width="29.968" height="27" viewBox="0 0 29.968 27">
  <metadata><?xpacket begin="﻿" id="W5M0MpCehiHzreSzNTczkc9d"?>
<x:xmpmeta xmlns:x="adobe:ns:meta/" x:xmptk="Adobe XMP Core 5.6-c138 79.159824, 2016/09/14-01:09:01        ">
   <rdf:RDF xmlns:rdf="http://www.w3.org/1999/02/22-rdf-syntax-ns#">
      <rdf:Description rdf:about=""/>
   </rdf:RDF>
</x:xmpmeta>
                                                                                                    
                                                                                                    
                                                                                                    
                                                                                                    
                                                                                                    
                                                                                                    
                                                                                                    
                                                                                                    
                                                                                                    
                                                                                                    
                                                                                                    
                                                                                                    
                                                                                                    
                                                                                                    
                                                                                                    
                                                                                                    
                                                                                                    
                                                                                                    
                                                                                                    
                                                                                                    
                           
<?xpacket end="w"?></metadata>
<defs>
    <style>
      .cls-1 {
        fill: #fff;
        fill-rule: evenodd;
      }
    </style>
  </defs>
  <path id="圆角矩形_2660" data-name="圆角矩形 2660" class="cls-1" d="M430.912,1050c-0.469,1.04-.895,2-2,2H413.141l0.529,3h15.741a1.5,1.5,0,1,1,0,3H412.436a1.5,1.5,0,0,1-1.5-1.5l-2.732-15.5h-2.759a1.5,1.5,0,0,1,0-3h3.994a1.5,1.5,0,0,1,1.5,1.5l0.455,2.58a1.955,1.955,0,0,1,.544-0.08H431.91a2,2,0,0,1,2,2Zm-16.978,9a3,3,0,1,1-3,3A3,3,0,0,1,413.934,1059Zm12.983,0a3,3,0,1,1-3,3A3,3,0,0,1,426.917,1059Z" transform="translate(-403.938 -1038)"/>
</svg>
