<svg xmlns="http://www.w3.org/2000/svg" width="96" height="96" viewBox="0 0 96 96">
  <metadata><?xpacket begin="﻿" id="W5M0MpCehiHzreSzNTczkc9d"?>
<x:xmpmeta xmlns:x="adobe:ns:meta/" x:xmptk="Adobe XMP Core 5.6-c138 79.159824, 2016/09/14-01:09:01        ">
   <rdf:RDF xmlns:rdf="http://www.w3.org/1999/02/22-rdf-syntax-ns#">
      <rdf:Description rdf:about=""/>
   </rdf:RDF>
</x:xmpmeta>
                                                                                                    
                                                                                                    
                                                                                                    
                                                                                                    
                                                                                                    
                                                                                                    
                                                                                                    
                                                                                                    
                                                                                                    
                                                                                                    
                                                                                                    
                                                                                                    
                                                                                                    
                                                                                                    
                                                                                                    
                                                                                                    
                                                                                                    
                                                                                                    
                                                                                                    
                                                                                                    
                           
<?xpacket end="w"?></metadata>
<defs>
    <style>
      .cls-1 {
        fill: #f04a4c;
        fill-rule: evenodd;
      }
    </style>
  </defs>
  <path id="停" class="cls-1" d="M505.08,329.02a48,48,0,1,1-48,48A48,48,0,0,1,505.08,329.02ZM505,331a46,46,0,1,1-46,46A46,46,0,0,1,505,331Zm-9,27a2,2,0,0,1,2,2v34a2,2,0,0,1-4,0V360A2,2,0,0,1,496,358Zm18,0a2,2,0,0,1,2,2v34a2,2,0,0,1-4,0V360A2,2,0,0,1,514,358Z" transform="translate(-457.094 -329.031)"/>
</svg>
