<svg xmlns="http://www.w3.org/2000/svg" xmlns:xlink="http://www.w3.org/1999/xlink" preserveAspectRatio="xMidYMid" width="24" height="20" viewBox="0 0 24 20">
  <defs>
    <style>
      .cls-1 {
        fill: #999;
        fill-rule: evenodd;
      }
    </style>
  </defs>
  <path d="M21.999,17.999 L13.999,17.999 C13.632,17.999 13.294,17.894 12.999,17.722 L12.999,18.999 C12.999,19.552 12.551,19.999 11.999,19.999 C11.446,19.999 10.999,19.552 10.999,18.999 L10.999,17.722 C10.704,17.894 10.365,17.999 9.999,17.999 L1.999,17.999 C0.895,17.999 -0.001,17.104 -0.001,15.999 L-0.001,1.999 C-0.001,0.895 0.895,-0.001 1.999,-0.001 L9.999,-0.001 C11.103,-0.001 11.999,0.895 11.999,1.999 C11.999,0.895 12.894,-0.001 13.999,-0.001 L21.999,-0.001 C23.103,-0.001 23.999,0.895 23.999,1.999 L23.999,15.999 C23.999,17.104 23.103,17.999 21.999,17.999 ZM10.999,2.999 C10.999,2.447 10.551,1.999 9.999,1.999 L2.999,1.999 C2.447,1.999 1.999,2.447 1.999,2.999 L1.999,14.999 C1.999,15.551 2.447,15.999 2.999,15.999 L9.999,15.999 C10.551,15.999 10.999,15.551 10.999,14.999 L10.999,13.999 L10.999,2.999 ZM21.999,2.999 C21.999,2.447 21.551,1.999 20.999,1.999 L13.999,1.999 C13.446,1.999 12.999,2.447 12.999,2.999 L12.999,13.999 L12.999,14.999 C12.999,15.551 13.446,15.999 13.999,15.999 L20.999,15.999 C21.551,15.999 21.999,15.551 21.999,14.999 L21.999,2.999 Z" class="cls-1"/>
</svg>
