<svg xmlns="http://www.w3.org/2000/svg" width="127.87" height="112" viewBox="0 0 127.87 112">
  <metadata><?xpacket begin="﻿" id="W5M0MpCehiHzreSzNTczkc9d"?>
<x:xmpmeta xmlns:x="adobe:ns:meta/" x:xmptk="Adobe XMP Core 5.6-c138 79.159824, 2016/09/14-01:09:01        ">
   <rdf:RDF xmlns:rdf="http://www.w3.org/1999/02/22-rdf-syntax-ns#">
      <rdf:Description rdf:about=""/>
   </rdf:RDF>
</x:xmpmeta>
                                                                                                    
                                                                                                    
                                                                                                    
                                                                                                    
                                                                                                    
                                                                                                    
                                                                                                    
                                                                                                    
                                                                                                    
                                                                                                    
                                                                                                    
                                                                                                    
                                                                                                    
                                                                                                    
                                                                                                    
                                                                                                    
                                                                                                    
                                                                                                    
                                                                                                    
                                                                                                    
                           
<?xpacket end="w"?></metadata>
<defs>
    <style>
      .cls-1 {
        fill: #ccc;
        fill-rule: evenodd;
      }
    </style>
  </defs>
  <path id="已使用" class="cls-1" d="M2639.08,2709.48a56.016,56.016,0,0,1-90.28,52.12l-8.12,4.69-2-3.47,6.91-3.98h0l3.65-2.11h0l1.37-.79h0l0.91-.53h0l80.84-46.67h0l0.92-.53h0l1.37-.79h0l3.65-2.11h0l7.77-4.49,2,3.47Zm-6.13,3.54-78.01,45.04A49.479,49.479,0,0,0,2632.95,2713.02Zm2.37-1.37-1.42.82a50.484,50.484,0,0,1-79.92,46.14l-1.42.82A51.989,51.989,0,0,0,2635.32,2711.65Zm-21.29,28.58-1.85-1.32-2.21.89,0.89-2.05-1.52-1.86,2.47,0.2,1.2-2.19,0.77,2.16,2.13,0.53-1.78,1.2Zm-9.74,12.43-2.51-1.83-2.95,1.16,1.15-2.77-2.07-2.57,3.33,0.32,1.56-2.97,1.08,2.97,2.87,0.75-2.37,1.61Zm-15.59,2.19-1.85-1.31-2.21.88,0.89-2.04-1.52-1.87,2.47,0.2,1.2-2.18,0.77,2.16,2.13,0.52-1.78,1.2Zm-12.74-34.88c-0.14,1.03-.34,2.07-0.57,3.13l-1.87-1.75a26.773,26.773,0,0,0-.38-11.03l2.37-.2a28.43,28.43,0,0,1,.68,5.64l8.08,13.99-1.99,1.15Zm16.07-19.39,15.95-9.21,9.03,15.65c0.91,1.57.56,2.81-1.03,3.73l-2.39,1.38-1.64-1.63c0.94-.45,1.72-0.85,2.33-1.21a1.153,1.153,0,0,0,.31-1.81l-1.79-3.1-5.15,2.98,3.42,5.92-2,1.15-3.42-5.92-4.88,2.82a14.388,14.388,0,0,1,1.43,7.82l-2.29-.48a13.784,13.784,0,0,0-2-7.91Zm7.88-2-4.78,2.76,1.8,3.11,4.78-2.76Zm7.15-4.13-5.15,2.97,1.8,3.12,5.15-2.97Zm-0.47,11.08,5.15-2.98-1.83-3.18-5.16,2.98Zm-6.78,3.91,4.78-2.76-1.83-3.18-4.78,2.76Zm-15.86,10.96a14.858,14.858,0,0,0,4.14.99,12.354,12.354,0,0,0-1-3.36l-4.53,2.62-3.56-6.17,4.63-2.68-0.94-1.64-5.22,3.01-1.09-1.89,5.21-3.01-1.12-1.96,1.97-1.14,1.13,1.96,5.59-3.23,1.09,1.89-5.59,3.23,0.95,1.64,4.8-2.77,3.56,6.17-4.88,2.82a13.873,13.873,0,0,1,1.37,4.59,19.327,19.327,0,0,0,7.78-2.22l0.62,2.16a20.228,20.228,0,0,1-8.65,2.22q-0.75,2.535-4.03,5.1l-1.89-1.29a9.045,9.045,0,0,0,3.53-3.92,20.631,20.631,0,0,1-4.79-1.2Zm0.69-6.85-2.78,1.6,1.53,2.66,2.79-1.6Zm6.46-.19-1.53-2.66-2.95,1.71,1.53,2.66Zm-40.34,13.93-1.09-1.89,15.77-9.11,5.04,8.73-12.82,7.4,3.31,5.74a1.17,1.17,0,0,0,1.81.5l10.44-6.02a1.7,1.7,0,0,0,.76-0.94c0.14-.49-0.36-1.86-1.52-4.11l2.3-.49c1.25,2.75,1.81,4.49,1.67,5.24a3.556,3.556,0,0,1-1.57,1.9l-11.53,6.66q-2.58,1.485-4.14-1.21l-6.25-10.83,1.99-1.15,1.63,2.82,10.83-6.25-2.85-4.95Zm71.04-50.56-3.65,2.11h0l-1.37.79h0l-0.92.53h0l-80.84,46.67h0l-0.91.53h0l-1.37.79h0l-3.65,2.11h0l-6.91,3.98-2-3.46,8.12-4.69a56.016,56.016,0,0,1,90.28-52.12l8.99-5.19,2,3.46-7.77,4.49h0Zm-87.36,45.82,78.01-45.04A49.47,49.47,0,0,0,2534.44,2722.55Zm23.25-49.8a52,52,0,0,0-25.63,51.17l1.43-.82a50.476,50.476,0,0,1,79.91-46.14l1.42-.82A51.993,51.993,0,0,0,2557.69,2672.75Zm-3.47,22.09,1.85,1.31,2.21-.88-0.89,2.04,1.52,1.87-2.47-.2-1.2,2.18-0.77-2.16-2.13-.52,1.78-1.2Zm9.74-12.43,2.51,1.83,2.95-1.17-1.15,2.78,2.08,2.57-3.33-.32-1.57,2.96-1.08-2.96-2.87-.75,2.37-1.61Zm15.59-2.2,1.85,1.32,2.21-.89-0.89,2.05,1.52,1.87-2.47-.21-1.2,2.19-0.77-2.16-2.13-.53,1.78-1.2Z" transform="translate(-2520.19 -2661.78)"/>
</svg>
