<svg xmlns="http://www.w3.org/2000/svg" width="27.94" height="27.97" viewBox="0 0 27.94 27.97">
  <metadata><?xpacket begin="﻿" id="W5M0MpCehiHzreSzNTczkc9d"?>
<x:xmpmeta xmlns:x="adobe:ns:meta/" x:xmptk="Adobe XMP Core 5.6-c138 79.159824, 2016/09/14-01:09:01        ">
   <rdf:RDF xmlns:rdf="http://www.w3.org/1999/02/22-rdf-syntax-ns#">
      <rdf:Description rdf:about=""/>
   </rdf:RDF>
</x:xmpmeta>
                                                                                                    
                                                                                                    
                                                                                                    
                                                                                                    
                                                                                                    
                                                                                                    
                                                                                                    
                                                                                                    
                                                                                                    
                                                                                                    
                                                                                                    
                                                                                                    
                                                                                                    
                                                                                                    
                                                                                                    
                                                                                                    
                                                                                                    
                                                                                                    
                                                                                                    
                                                                                                    
                           
<?xpacket end="w"?></metadata>
<defs>
    <style>
      .cls-1 {
        fill: #fff;
        fill-rule: evenodd;
      }
    </style>
  </defs>
  <path id="圆角矩形_1_拷贝_8" data-name="圆角矩形 1 拷贝 8" class="cls-1" d="M1168.98,1140.36a0.488,0.488,0,0,1-.01.17l-2.93,15.35c0,0.04.02,0.08,0.02,0.12a0.977,0.977,0,0,1-.51.85,0.55,0.55,0,0,1-.09.07h-0.02a1.015,1.015,0,0,1-.71.09c0-.01,0-0.01-0.01-0.01h-9.66c-0.01,0-.02-0.01-0.03-0.01s-0.02.01-.03,0.01h-9.66a0.01,0.01,0,0,0-.01.01,1.015,1.015,0,0,1-.71-0.09h-0.01a0.359,0.359,0,0,1-.1-0.07,0.977,0.977,0,0,1-.51-0.85c0-.04.02-0.08,0.02-0.12l-2.93-15.35a5.961,5.961,0,0,0-.02-0.29,0.868,0.868,0,0,1,.05-0.28c0.01-.03.02-0.05,0.03-0.08a1.271,1.271,0,0,1,.18-0.27c0.01-.01.01-0.03,0.02-0.04s0.02,0,.02-0.01a1.271,1.271,0,0,1,.27-0.18c0.02-.01.05-0.02,0.07-0.03a0.247,0.247,0,0,1,.09-0.04,1.225,1.225,0,0,1,.19-0.02h0.11a0.7,0.7,0,0,1,.25.05,0.5,0.5,0,0,1,.13.04,0.8,0.8,0,0,1,.19.13c0.03,0.02.07,0.04,0.1,0.06l5.72,5.53,5.7-9.61a0.705,0.705,0,0,1,.07-0.09,0.151,0.151,0,0,0,.04-0.04,1.15,1.15,0,0,1,.23-0.21,0.053,0.053,0,0,0,.03-0.02c0.02-.01.04-0.01,0.06-0.02a1.128,1.128,0,0,1,.24-0.08,0.926,0.926,0,0,1,.58.08c0.02,0.01.04,0.01,0.06,0.02a0.053,0.053,0,0,0,.03.02,1.15,1.15,0,0,1,.23.21,0.151,0.151,0,0,0,.04.04,0.705,0.705,0,0,1,.07.09l5.71,9.61,5.71-5.53c0.03-.02.07-0.04,0.1-0.06a0.8,0.8,0,0,1,.19-0.13,0.929,0.929,0,0,1,.13-0.04,0.7,0.7,0,0,1,.25-0.05h0.11a1.355,1.355,0,0,1,.2.02,0.3,0.3,0,0,1,.08.04,0.488,0.488,0,0,1,.07.03,1.271,1.271,0,0,1,.27.18,0.02,0.02,0,0,0,.02.01c0.01,0.01.01,0.03,0.02,0.04a0.98,0.98,0,0,1,.18.27c0.01,0.03.02,0.05,0.03,0.08a0.868,0.868,0,0,1,.05.28A0.487,0.487,0,0,1,1168.98,1140.36ZM1144,1161h22a1,1,0,0,1,0,2h-22A1,1,0,0,1,1144,1161Z" transform="translate(-1141.06 -1135.03)"/>
</svg>
