<svg xmlns="http://www.w3.org/2000/svg" width="43" height="45" viewBox="0 0 43 45">
  <metadata><?xpacket begin="﻿" id="W5M0MpCehiHzreSzNTczkc9d"?>
<x:xmpmeta xmlns:x="adobe:ns:meta/" x:xmptk="Adobe XMP Core 5.6-c138 79.159824, 2016/09/14-01:09:01        ">
   <rdf:RDF xmlns:rdf="http://www.w3.org/1999/02/22-rdf-syntax-ns#">
      <rdf:Description rdf:about=""/>
   </rdf:RDF>
</x:xmpmeta>
                                                                                                    
                                                                                                    
                                                                                                    
                                                                                                    
                                                                                                    
                                                                                                    
                                                                                                    
                                                                                                    
                                                                                                    
                                                                                                    
                                                                                                    
                                                                                                    
                                                                                                    
                                                                                                    
                                                                                                    
                                                                                                    
                                                                                                    
                                                                                                    
                                                                                                    
                                                                                                    
                           
<?xpacket end="w"?></metadata>
<defs>
    <style>
      .cls-1 {
        fill: #fff;
        fill-rule: evenodd;
      }
    </style>
  </defs>
  <path id="椭圆_782_拷贝_3" data-name="椭圆 782 拷贝 3" class="cls-1" d="M1220,3454a1,1,0,0,1-1-1h0a1,1,0,0,1,1-1h28a1,1,0,0,1,1,1h0a1,1,0,0,1-1,1h-28Zm35-1a6,6,0,0,1-6,6h-31a5.993,5.993,0,0,1-5.74-4.34,0.974,0.974,0,0,1-.26-0.66v-33a1.039,1.039,0,0,1,.07-0.35c-0.02-.22-0.07-0.43-0.07-0.65a6,6,0,0,1,6-6h30a1,1,0,0,1,1,1v33a1,1,0,0,1-1,1h-29v0.14a4.091,4.091,0,0,0-1-.14,4,4,0,0,0,0,8h30v-0.14a4.091,4.091,0,0,0,1,.14,4,4,0,0,0,4-4v-4.46h0V3421a1,1,0,0,1,2,0v32h0Zm-37-6h29v-31h-28v0.14a4.091,4.091,0,0,0-1-.14,4,4,0,0,0-4,4v28.56A5.948,5.948,0,0,1,1218,3447Z" transform="translate(-1212 -3414)"/>
</svg>
