<svg xmlns="http://www.w3.org/2000/svg" width="24" height="24" viewBox="0 0 24 24">
  <metadata><?xpacket begin="﻿" id="W5M0MpCehiHzreSzNTczkc9d"?>
<x:xmpmeta xmlns:x="adobe:ns:meta/" x:xmptk="Adobe XMP Core 5.6-c138 79.159824, 2016/09/14-01:09:01        ">
   <rdf:RDF xmlns:rdf="http://www.w3.org/1999/02/22-rdf-syntax-ns#">
      <rdf:Description rdf:about=""/>
   </rdf:RDF>
</x:xmpmeta>
                                                                                                    
                                                                                                    
                                                                                                    
                                                                                                    
                                                                                                    
                                                                                                    
                                                                                                    
                                                                                                    
                                                                                                    
                                                                                                    
                                                                                                    
                                                                                                    
                                                                                                    
                                                                                                    
                                                                                                    
                                                                                                    
                                                                                                    
                                                                                                    
                                                                                                    
                                                                                                    
                           
<?xpacket end="w"?></metadata>
<defs>
    <style>
      .cls-1 {
        fill: #bbb;
        fill-rule: evenodd;
      }
    </style>
  </defs>
  <path id="下载" class="cls-1" d="M3122,1465a12,12,0,1,1,12-12A12,12,0,0,1,3122,1465Zm0-22a10,10,0,1,0,10,10A10,10,0,0,0,3122,1443Zm0.7,14.47a0.957,0.957,0,0,1-.74.29,1.061,1.061,0,0,1-.79-0.31l-3.84-3.84a1.086,1.086,0,0,1,0-1.53,1.1,1.1,0,0,1,1.54,0l2.13,2.13V1449a1,1,0,0,1,2,0v5.35l1.83-1.83a1,1,0,0,1,1.41,0,1.008,1.008,0,0,1,0,1.42Z" transform="translate(-3110 -1441)"/>
</svg>
