<svg xmlns="http://www.w3.org/2000/svg" width="36" height="36" viewBox="0 0 36 36">
  <metadata><?xpacket begin="﻿" id="W5M0MpCehiHzreSzNTczkc9d"?>
<x:xmpmeta xmlns:x="adobe:ns:meta/" x:xmptk="Adobe XMP Core 5.6-c138 79.159824, 2016/09/14-01:09:01        ">
   <rdf:RDF xmlns:rdf="http://www.w3.org/1999/02/22-rdf-syntax-ns#">
      <rdf:Description rdf:about=""/>
   </rdf:RDF>
</x:xmpmeta>
                                                                                                    
                                                                                                    
                                                                                                    
                                                                                                    
                                                                                                    
                                                                                                    
                                                                                                    
                                                                                                    
                                                                                                    
                                                                                                    
                                                                                                    
                                                                                                    
                                                                                                    
                                                                                                    
                                                                                                    
                                                                                                    
                                                                                                    
                                                                                                    
                                                                                                    
                                                                                                    
                           
<?xpacket end="w"?></metadata>
<defs>
    <style>
      .cls-1 {
        fill: #ccc;
        fill-rule: evenodd;
      }
    </style>
  </defs>
  <path id="矩形_2_拷贝_2" data-name="矩形 2 拷贝 2" class="cls-1" d="M1867,1151h22v22h-22v-22Zm3,3h16v16h-16v-16Zm3,3h10v10h-10v-10Zm20,1h3v15h-3v-15Zm0-7h3v3h-3v-3Zm7,0h3v15h-3v-15Zm0,19h3v3h-3v-3Zm-33,7h15v3h-15v-3Zm19,0h3v3h-3v-3Zm-12,7h15v3h-15v-3Zm-7,0h3v3h-3v-3Zm26-7h10v10h-10v-10Zm3,3h4v4h-4v-4Z" transform="translate(-1867 -1151)"/>
</svg>
