<svg xmlns="http://www.w3.org/2000/svg" xmlns:xlink="http://www.w3.org/1999/xlink" preserveAspectRatio="xMidYMid" width="27" height="36" viewBox="0 0 27 36">
  <defs>
    <style>
      .cls-1 {
        fill: #666;
        fill-rule: evenodd;
      }
    </style>
  </defs>
  <path d="M24.749,35.993 L1.999,36.000 C0.756,36.000 -0.001,35.242 -0.001,33.999 L-0.001,1.999 C-0.001,0.757 0.756,-0.001 1.999,-0.001 L17.999,0.000 L26.999,8.999 L26.999,33.744 C26.999,34.987 25.991,35.993 24.749,35.993 ZM24.999,10.000 L16.999,1.999 L1.999,1.999 L1.999,33.999 L24.999,33.999 L24.999,10.000 ZM8.696,19.267 L11.524,22.096 L19.302,14.318 C19.693,13.927 20.326,13.927 20.717,14.318 C21.108,14.708 21.108,15.341 20.717,15.731 L12.231,24.217 C11.840,24.607 11.208,24.607 10.817,24.217 L7.282,20.681 C6.891,20.291 6.891,19.657 7.282,19.267 C7.672,18.877 8.305,18.877 8.696,19.267 Z" class="cls-1"/>
</svg>
