<svg xmlns="http://www.w3.org/2000/svg" xmlns:xlink="http://www.w3.org/1999/xlink" preserveAspectRatio="xMidYMid" width="27" height="36" viewBox="0 0 27 36">
  <defs>
    <style>
      .cls-1 {
        fill: #f04a4c;
        fill-rule: evenodd;
      }
    </style>
  </defs>
  <path d="M24.749,35.993 L1.999,36.000 C0.756,36.000 -0.001,35.242 -0.001,33.999 L-0.001,1.999 C-0.001,0.757 0.756,-0.001 1.999,-0.001 L17.999,0.000 L26.999,8.999 L26.999,33.744 C26.999,34.987 25.991,35.993 24.749,35.993 ZM20.718,14.393 C20.327,14.003 19.694,14.003 19.303,14.393 L11.525,22.172 L8.697,19.343 C8.306,18.953 7.673,18.953 7.282,19.343 C6.892,19.734 6.892,20.367 7.282,20.757 L10.818,24.293 C11.209,24.683 11.842,24.683 12.232,24.293 L20.718,15.808 C21.108,15.417 21.108,14.784 20.718,14.393 Z" class="cls-1"/>
</svg>
