<svg xmlns="http://www.w3.org/2000/svg" xmlns:xlink="http://www.w3.org/1999/xlink" preserveAspectRatio="xMidYMid" width="35.969" height="35.97" viewBox="0 0 35.969 35.97">
  <defs>
    <style>
      .cls-1 {
        fill: #666;
        fill-rule: evenodd;
      }
    </style>
  </defs>
  <path d="M30.697,30.698 C23.667,37.727 12.271,37.727 5.241,30.698 C-1.788,23.668 -1.788,12.272 5.241,5.242 C12.271,-1.787 23.667,-1.787 30.697,5.242 C37.726,12.272 37.726,23.668 30.697,30.698 ZM29.283,6.656 C23.034,0.408 12.904,0.408 6.655,6.656 C0.407,12.905 0.407,23.035 6.655,29.284 C12.904,35.532 23.034,35.532 29.283,29.284 C35.531,23.035 35.531,12.905 29.283,6.656 ZM28.147,10.530 L22.212,22.213 L10.506,28.170 L10.490,28.141 C9.722,28.597 8.730,28.530 8.070,27.869 C7.433,27.233 7.343,26.288 7.744,25.532 L7.725,25.521 L13.726,13.727 L25.498,7.748 L25.509,7.767 C26.264,7.366 27.210,7.456 27.846,8.093 C28.507,8.753 28.574,9.745 28.118,10.513 L28.147,10.530 ZM24.663,10.386 C24.663,10.386 24.663,10.386 24.663,10.386 L24.408,10.513 L22.654,11.385 L22.656,11.388 L15.141,15.142 L11.367,22.682 L11.362,22.677 L9.484,26.455 L13.262,24.577 L13.252,24.567 L20.797,20.798 L24.546,13.278 L24.554,13.285 L26.432,9.507 L24.663,10.386 ZM16.555,19.384 C15.774,18.603 15.774,17.337 16.555,16.556 C17.336,15.775 18.602,15.775 19.383,16.556 C20.164,17.337 20.164,18.603 19.383,19.384 C18.602,20.165 17.336,20.165 16.555,19.384 Z" class="cls-1"/>
</svg>
