<svg xmlns="http://www.w3.org/2000/svg" width="84" height="38" viewBox="0 0 84 38">
  <metadata><?xpacket begin="﻿" id="W5M0MpCehiHzreSzNTczkc9d"?>
<x:xmpmeta xmlns:x="adobe:ns:meta/" x:xmptk="Adobe XMP Core 5.6-c138 79.159824, 2016/09/14-01:09:01        ">
   <rdf:RDF xmlns:rdf="http://www.w3.org/1999/02/22-rdf-syntax-ns#">
      <rdf:Description rdf:about=""/>
   </rdf:RDF>
</x:xmpmeta>
                                                                                                    
                                                                                                    
                                                                                                    
                                                                                                    
                                                                                                    
                                                                                                    
                                                                                                    
                                                                                                    
                                                                                                    
                                                                                                    
                                                                                                    
                                                                                                    
                                                                                                    
                                                                                                    
                                                                                                    
                                                                                                    
                                                                                                    
                                                                                                    
                                                                                                    
                                                                                                    
                           
<?xpacket end="w"?></metadata>
<defs>
    <style>
      .cls-1 {
        fill: #999;
        fill-rule: evenodd;
      }
    </style>
  </defs>
  <path id="圆角矩形_1_拷贝" data-name="圆角矩形 1 拷贝" class="cls-1" d="M830,293h-50.5l4.214,4.321a1.1,1.1,0,0,1,0,1.52,1.03,1.03,0,0,1-1.481,0l-5.925-6.076a1.1,1.1,0,0,1,0-1.519,1.012,1.012,0,0,1,.878-0.288c0.272,0.02.542,0.042,0.819,0.042h52a13,13,0,0,0,0-26H778a12.985,12.985,0,0,0-8.384,22.913,1.046,1.046,0,0,1-.428,1.993,1.011,1.011,0,0,1-.831-0.46A14.932,14.932,0,0,1,763,278h0a15,15,0,0,1,15-15h52a15,15,0,0,1,15,15h0A15,15,0,0,1,830,293Z" transform="translate(-762 -262.078)"/>
</svg>
