<svg xmlns="http://www.w3.org/2000/svg" width="36" height="35.19" viewBox="0 0 36 35.19">
  <metadata><?xpacket begin="﻿" id="W5M0MpCehiHzreSzNTczkc9d"?>
<x:xmpmeta xmlns:x="adobe:ns:meta/" x:xmptk="Adobe XMP Core 5.6-c138 79.159824, 2016/09/14-01:09:01        ">
   <rdf:RDF xmlns:rdf="http://www.w3.org/1999/02/22-rdf-syntax-ns#">
      <rdf:Description rdf:about=""/>
   </rdf:RDF>
</x:xmpmeta>
                                                                                                    
                                                                                                    
                                                                                                    
                                                                                                    
                                                                                                    
                                                                                                    
                                                                                                    
                                                                                                    
                                                                                                    
                                                                                                    
                                                                                                    
                                                                                                    
                                                                                                    
                                                                                                    
                                                                                                    
                                                                                                    
                                                                                                    
                                                                                                    
                                                                                                    
                                                                                                    
                           
<?xpacket end="w"?></metadata>
<defs>
    <style>
      .cls-1 {
        fill: #666;
        fill-rule: evenodd;
      }
    </style>
  </defs>
  <path id="多边形_1_拷贝" data-name="多边形 1 拷贝" class="cls-1" d="M3556.27,1603.99V1604H3554v13c0,0.24-.02.46-0.04,0.67a1.859,1.859,0,0,1,.04.33,2.006,2.006,0,0,1-2,2,3.106,3.106,0,0,1-.33-0.03c-0.21.02-.43,0.03-0.67,0.03h-7v-8h0v-3h-6v11h-7c-0.24,0-.46-0.01-0.67-0.03-0.11.01-.22,0.03-0.33,0.03a2,2,0,0,1-2-2,1.841,1.841,0,0,1,.03-0.33c-0.02-.21-0.03-0.43-0.03-0.67v-13h-2v-0.01h-0.02l-0.01-.01a0.777,0.777,0,0,1-.16.02,2,2,0,0,1-1.39-3.44h0l15.06-15.04a1.979,1.979,0,0,1,3.02-.02h0.01l15.02,15.03A1.984,1.984,0,0,1,3556.27,1603.99ZM3541,1587l-15,15h2a2.006,2.006,0,0,1,2,2v13a1,1,0,0,0,1,1h5v-9a2,2,0,0,1,2-2h6a2.006,2.006,0,0,1,2,2v9h5a1,1,0,0,0,1-1v-13a2,2,0,0,1,2-2h2Z" transform="translate(-3523 -1584.81)"/>
</svg>
