<svg xmlns="http://www.w3.org/2000/svg" width="29.97" height="30" viewBox="0 0 29.97 30">
  <metadata><?xpacket begin="﻿" id="W5M0MpCehiHzreSzNTczkc9d"?>
<x:xmpmeta xmlns:x="adobe:ns:meta/" x:xmptk="Adobe XMP Core 5.6-c138 79.159824, 2016/09/14-01:09:01        ">
   <rdf:RDF xmlns:rdf="http://www.w3.org/1999/02/22-rdf-syntax-ns#">
      <rdf:Description rdf:about=""/>
   </rdf:RDF>
</x:xmpmeta>
                                                                                                    
                                                                                                    
                                                                                                    
                                                                                                    
                                                                                                    
                                                                                                    
                                                                                                    
                                                                                                    
                                                                                                    
                                                                                                    
                                                                                                    
                                                                                                    
                                                                                                    
                                                                                                    
                                                                                                    
                                                                                                    
                                                                                                    
                                                                                                    
                                                                                                    
                                                                                                    
                           
<?xpacket end="w"?></metadata>
<defs>
    <style>
      .cls-1 {
        fill: #fff;
        fill-rule: evenodd;
      }
    </style>
  </defs>
  <path id="椭圆_3177" data-name="椭圆 3177" class="cls-1" d="M1154.93,1261a15,15,0,1,1,14.98-15A14.988,14.988,0,0,1,1154.93,1261Zm6.07-17h-4.52l4.23-4.23a1.047,1.047,0,0,0-1.48-1.48l-4.25,4.25-3.91-3.92a1.008,1.008,0,0,0-1.42,0,1,1,0,0,0,0,1.41l3.97,3.97H1149a1,1,0,0,0,0,2h5v2h-4a1,1,0,0,0,0,2h4v4a1,1,0,0,0,2,0v-4h4a1,1,0,0,0,0-2h-4v-2h5A1,1,0,0,0,1161,1244Z" transform="translate(-1139.94 -1231)"/>
</svg>
