<svg xmlns="http://www.w3.org/2000/svg" width="48" height="48" viewBox="0 0 48 48">
  <metadata><?xpacket begin="﻿" id="W5M0MpCehiHzreSzNTczkc9d"?>
<x:xmpmeta xmlns:x="adobe:ns:meta/" x:xmptk="Adobe XMP Core 5.6-c138 79.159824, 2016/09/14-01:09:01        ">
   <rdf:RDF xmlns:rdf="http://www.w3.org/1999/02/22-rdf-syntax-ns#">
      <rdf:Description rdf:about=""/>
   </rdf:RDF>
</x:xmpmeta>
                                                                                                    
                                                                                                    
                                                                                                    
                                                                                                    
                                                                                                    
                                                                                                    
                                                                                                    
                                                                                                    
                                                                                                    
                                                                                                    
                                                                                                    
                                                                                                    
                                                                                                    
                                                                                                    
                                                                                                    
                                                                                                    
                                                                                                    
                                                                                                    
                                                                                                    
                                                                                                    
                           
<?xpacket end="w"?></metadata>
<defs>
    <style>
      .cls-1 {
        fill: #fff;
        fill-rule: evenodd;
      }
    </style>
  </defs>
  <path id="椭圆_3177" data-name="椭圆 3177" class="cls-1" d="M2899.95,2732a24,24,0,1,1,23.99-24A24,24,0,0,1,2899.95,2732Zm10.03-27h-8.63l6.36-6.37a0.99,0.99,0,0,0-1.4-1.4l-6.32,6.32-6.38-6.38a1,1,0,1,0-1.41,1.41l6.41,6.42h-8.59a1,1,0,0,0,0,2h8.96v4h-6.99a1,1,0,0,0,0,2h6.99v8a1,1,0,0,0,2,0v-8h7.03a1,1,0,0,0,0-2h-7.03v-4h9A1,1,0,0,0,2909.98,2705Z" transform="translate(-2875.94 -2684)"/>
</svg>
