<svg xmlns="http://www.w3.org/2000/svg" xmlns:xlink="http://www.w3.org/1999/xlink" preserveAspectRatio="xMidYMid" width="35" height="40" viewBox="0 0 35 40">
  <defs>
    <style>
      .cls-1 {
        fill: #f04a4c;
        stroke: #f04a4c;
        stroke-width: 2px;
        fill-rule: evenodd;
      }
    </style>
  </defs>
  <path d="M33.000,39.000 C32.448,39.000 32.000,38.552 32.000,38.000 L32.000,21.043 C31.859,21.220 31.696,21.378 31.499,21.493 L31.499,21.522 L3.570,38.442 L3.542,38.426 C3.293,38.569 3.020,38.672 2.714,38.672 C1.783,38.672 1.033,37.919 1.009,36.984 L0.998,36.979 L0.998,3.046 L1.003,3.044 C1.011,2.095 1.773,1.328 2.714,1.328 C3.016,1.328 3.284,1.427 3.530,1.565 L3.556,1.550 L31.499,18.493 L31.499,18.533 C31.696,18.648 31.859,18.806 32.000,18.983 L32.000,2.000 C32.000,1.447 32.448,1.000 33.000,1.000 C33.552,1.000 34.000,1.447 34.000,2.000 L34.000,38.000 C34.000,38.552 33.552,39.000 33.000,39.000 Z" class="cls-1"/>
</svg>
