<svg xmlns="http://www.w3.org/2000/svg" width="113.97" height="90" viewBox="0 0 113.97 90">
  <metadata><?xpacket begin="﻿" id="W5M0MpCehiHzreSzNTczkc9d"?>
<x:xmpmeta xmlns:x="adobe:ns:meta/" x:xmptk="Adobe XMP Core 5.6-c138 79.159824, 2016/09/14-01:09:01        ">
   <rdf:RDF xmlns:rdf="http://www.w3.org/1999/02/22-rdf-syntax-ns#">
      <rdf:Description rdf:about=""/>
   </rdf:RDF>
</x:xmpmeta>
                                                                                                    
                                                                                                    
                                                                                                    
                                                                                                    
                                                                                                    
                                                                                                    
                                                                                                    
                                                                                                    
                                                                                                    
                                                                                                    
                                                                                                    
                                                                                                    
                                                                                                    
                                                                                                    
                                                                                                    
                                                                                                    
                                                                                                    
                                                                                                    
                                                                                                    
                                                                                                    
                           
<?xpacket end="w"?></metadata>
<defs>
    <style>
      .cls-1 {
        fill: #f04a4c;
        fill-rule: evenodd;
        opacity: 0.6;
      }
    </style>
  </defs>
  <path id="已报名_拷贝_2" data-name="已报名 拷贝 2" class="cls-1" d="M4579.33,816.125A50.523,50.523,0,0,1,4505.75,747h1.7a49.244,49.244,0,1,0,73.09,0h1.71A50.527,50.527,0,0,1,4579.33,816.125Zm1.3-51.685-1.91,1.5-0.03-2.423-2.01-1.349,2.29-.777,0.67-2.331,1.44,1.943,2.42-.092-1.4,1.978,0.84,2.274ZM4544,794.1l-1.63.111a23.291,23.291,0,0,1-.61-4.773,12.971,12.971,0,0,1-4.92-.653l0.45-1.559a11.883,11.883,0,0,0,4.54.621,12.346,12.346,0,0,1,2.22-6.27l-0.92-.922-7.19,7.192-1.08-1.082,13.93-13.939,6.99,6.985a21.087,21.087,0,0,1-3.8,3.262c-0.78.393-1.67,0.08-2.69-.939l-1.15-1.145,0.69-1.321,0.92,0.955a7.516,7.516,0,0,0,.94.811,1.117,1.117,0,0,0,.79.064,10.905,10.905,0,0,0,2.15-1.734l-4.8-4.806-4.65,4.646,6.05,6.047-0.99.986a15.943,15.943,0,0,1-6.03,2.626A19.583,19.583,0,0,0,4544,794.1Zm4.08-8.5-2.99-2.991a10.23,10.23,0,0,0-1.82,5.028A14.21,14.21,0,0,0,4548.08,785.606Zm-8.8-15.545,1.1-1.1,2.3,2.307,2.88-2.88,1.13,1.13-2.88,2.88,1.79,1.782-1.1,1.1-1.78-1.783-3.25,3.246c0.93,0.361,1.84.679,2.71,0.955l-1.13,1.13c-1.03-.35-1.92-0.679-2.68-0.987l-4.74,4.742a1.764,1.764,0,0,1-2.82.048l-1.48-1.48,0.85-1.353a17.588,17.588,0,0,0,1.25,1.416,0.839,0.839,0,0,0,1.34-.031l4.01-4.01c-0.92-.435-1.93-0.933-3.02-1.5l0.84-1.416q1.5,0.923,3.3,1.8l3.69-3.691Zm-12.24-18.6,11.87,11.87-6.36,6.365-9.87-9.866-4.77,4.774a1.226,1.226,0,0,0-.02,1.957l8.15,8.147a1.837,1.837,0,0,0,1.16.588q0.9,0,3.61-2.5l0.77,1.464c-2.12,1.8-3.57,2.737-4.33,2.8a3.125,3.125,0,0,1-2-.923l-8.79-8.783q-1.8-1.8.08-3.676l8.39-8.385,1.14,1.145-2.29,2.292,8.71,8.7,4.15-4.153-10.71-10.708Zm46.26,2.5-1.42,1.962-0.7-2.322-2.3-.745,1.99-1.376v-2.423l1.92,1.47,2.31-.752-0.81,2.286,1.43,1.958Zm-33.23-2.174a0.972,0.972,0,0,1-.83-0.28v0a0.977,0.977,0,0,1,.55-1.654,30.432,30.432,0,0,1,34.26,35.025,0.983,0.983,0,0,1-1.67.518v0a0.957,0.957,0,0,1-.26-0.836A28.458,28.458,0,0,0,4540.07,751.788Zm9.36,49.459-1.14-1.146,5.61-5.616q-1.89-.971-4.01-2.26l0.5-1.7a40.015,40.015,0,0,0,9.1,4.646,26.617,26.617,0,0,0-.96-4.774l1.61,0.366a32.441,32.441,0,0,1,.84,4.853,13.545,13.545,0,0,0,6.96.144l-5.89-5.888a23.3,23.3,0,0,1-6.83-1.448l0.23-1.75q5.79,2.323,9.78,1.225l1.11,1.4a15.532,15.532,0,0,1-2.21.493l6.21,6.2-1.02,1.019q-4.995,1.558-11.54-.844l6.64,6.635-6.71,6.715-1.17-1.161,0.94-.939-7.11-7.113Zm9.17,5.06,3.59-3.6-7.11-7.112-3.6,3.595Zm-44.87-29.5a0.977,0.977,0,0,1,1.67-.573,0.95,0.95,0,0,1,.27.783,28.452,28.452,0,0,0,30.68,31.367,0.954,0.954,0,0,1,.77.286,0.979,0.979,0,0,1-.61,1.662A30.421,30.421,0,0,1,4513.73,776.81Zm10.88,37.741,0.83-2.277,1.3,2.042,2.43,0.084-1.54,1.871,0.67,2.329-2.26-.886-2.01,1.355,0.15-2.418-1.91-1.491Zm-9.72-8.323,1.42-1.962,0.69,2.322,2.31,0.745-2,1.376,0.01,2.423-1.93-1.47-2.3.752,0.8-2.286-1.42-1.957Zm-7.52-10.668,1.91-1.5,0.03,2.422,2.01,1.349-2.29.777-0.67,2.331L4506.92,799l-2.43.092,1.4-1.978-0.83-2.274Zm-5.8-48.56a53.759,53.759,0,1,0,84.87,0h4.05a57.009,57.009,0,1,1-92.96,0h4.04Z" transform="translate(-4487.03 -747)"/>
</svg>
