<svg id="_15左" data-name="15左" xmlns="http://www.w3.org/2000/svg" width="43" height="38" viewBox="0 0 43 38">
  <metadata><?xpacket begin="﻿" id="W5M0MpCehiHzreSzNTczkc9d"?>
<x:xmpmeta xmlns:x="adobe:ns:meta/" x:xmptk="Adobe XMP Core 5.6-c138 79.159824, 2016/09/14-01:09:01        ">
   <rdf:RDF xmlns:rdf="http://www.w3.org/1999/02/22-rdf-syntax-ns#">
      <rdf:Description rdf:about=""/>
   </rdf:RDF>
</x:xmpmeta>
                                                                                                    
                                                                                                    
                                                                                                    
                                                                                                    
                                                                                                    
                                                                                                    
                                                                                                    
                                                                                                    
                                                                                                    
                                                                                                    
                                                                                                    
                                                                                                    
                                                                                                    
                                                                                                    
                                                                                                    
                                                                                                    
                                                                                                    
                                                                                                    
                                                                                                    
                                                                                                    
                           
<?xpacket end="w"?></metadata>
<defs>
    <style>
      .cls-1, .cls-2 {
        fill: #999;
      }

      .cls-1 {
        fill-rule: evenodd;
      }

      .cls-2 {
        font-size: 19.714px;
        text-anchor: middle;
        font-family: Arial;
        text-transform: uppercase;
      }
    </style>
  </defs>
  <path id="圆角矩形_1_拷贝_3" data-name="圆角矩形 1 拷贝 3" class="cls-1" d="M175.284,382.093l5.607,5.661a0.984,0.984,0,0,0,.717.29,1.028,1.028,0,0,0,.747-0.3l5.86-5.914a1.054,1.054,0,0,0,0-1.479,1.031,1.031,0,0,0-1.466,0l-4.357,4.4c-0.011-.231-0.033-0.459-0.033-0.693a16.974,16.974,0,1,1,3.379,10.17l-0.048.035a0.946,0.946,0,0,0-.814-0.512,1.007,1.007,0,0,0-.967,1.042,1.075,1.075,0,0,0,.211.622l-0.009.006c0.017,0.022.037,0.042,0.054,0.064a0.749,0.749,0,0,0,.051.061,18.992,18.992,0,1,0-3.922-11.553c0,0.118.014,0.233,0.017,0.351l-3.626-3.66a0.983,0.983,0,0,0-1.4,0A1.006,1.006,0,0,0,175.284,382.093Z" transform="translate(-175 -365)"/>
  <text id="_15" data-name="15" class="cls-2" transform="translate(25 26.411) scale(1 1.014)">15</text>
</svg>
