<svg xmlns="http://www.w3.org/2000/svg" width="24" height="24" viewBox="0 0 24 24">
  <metadata><?xpacket begin="﻿" id="W5M0MpCehiHzreSzNTczkc9d"?>
<x:xmpmeta xmlns:x="adobe:ns:meta/" x:xmptk="Adobe XMP Core 5.6-c138 79.159824, 2016/09/14-01:09:01        ">
   <rdf:RDF xmlns:rdf="http://www.w3.org/1999/02/22-rdf-syntax-ns#">
      <rdf:Description rdf:about=""/>
   </rdf:RDF>
</x:xmpmeta>
                                                                                                    
                                                                                                    
                                                                                                    
                                                                                                    
                                                                                                    
                                                                                                    
                                                                                                    
                                                                                                    
                                                                                                    
                                                                                                    
                                                                                                    
                                                                                                    
                                                                                                    
                                                                                                    
                                                                                                    
                                                                                                    
                                                                                                    
                                                                                                    
                                                                                                    
                                                                                                    
                           
<?xpacket end="w"?></metadata>
<defs>
    <style>
      .cls-1 {
        fill: #bbb;
        fill-rule: evenodd;
      }
    </style>
  </defs>
  <path id="下载_拷贝" data-name="下载 拷贝" class="cls-1" d="M3261.99,1459.64l1.22,3.24a1.043,1.043,0,0,1,.1.43,1,1,0,0,1-1,1,1.043,1.043,0,0,1-.43-0.1l-3.24-1.22A12.012,12.012,0,1,1,3261.99,1459.64ZM3252,1443a10,10,0,1,0,10,10A10,10,0,0,0,3252,1443Zm5,11a1,1,0,1,1,1-1A1,1,0,0,1,3257,1454Zm-5,0a1,1,0,1,1,1-1A1,1,0,0,1,3252,1454Zm-5,0a1,1,0,1,1,1-1A1,1,0,0,1,3247,1454Z" transform="translate(-3240 -1441)"/>
</svg>
