<svg xmlns="http://www.w3.org/2000/svg" width="35.97" height="36" viewBox="0 0 35.97 36">
  <metadata><?xpacket begin="﻿" id="W5M0MpCehiHzreSzNTczkc9d"?>
<x:xmpmeta xmlns:x="adobe:ns:meta/" x:xmptk="Adobe XMP Core 5.6-c138 79.159824, 2016/09/14-01:09:01        ">
   <rdf:RDF xmlns:rdf="http://www.w3.org/1999/02/22-rdf-syntax-ns#">
      <rdf:Description rdf:about=""/>
   </rdf:RDF>
</x:xmpmeta>
                                                                                                    
                                                                                                    
                                                                                                    
                                                                                                    
                                                                                                    
                                                                                                    
                                                                                                    
                                                                                                    
                                                                                                    
                                                                                                    
                                                                                                    
                                                                                                    
                                                                                                    
                                                                                                    
                                                                                                    
                                                                                                    
                                                                                                    
                                                                                                    
                                                                                                    
                                                                                                    
                           
<?xpacket end="w"?></metadata>
<defs>
    <style>
      .cls-1 {
        fill: #ccc;
        fill-rule: evenodd;
      }
    </style>
  </defs>
  <path id="椭圆_3_拷贝" data-name="椭圆 3 拷贝" class="cls-1" d="M3267.7,1040a18,18,0,1,1-17.99,18A17.993,17.993,0,0,1,3267.7,1040Zm0.02,2a16,16,0,1,1-16,16A15.993,15.993,0,0,1,3267.72,1042Zm10.88,17.44a10.977,10.977,0,0,1-21.77,0,1.1,1.1,0,0,1-.11-0.44,1,1,0,1,1,2,0h0.06a8.99,8.99,0,0,0,17.87,0h0.06a1,1,0,0,1,2,0A0.956,0.956,0,0,1,3278.6,1059.44Z" transform="translate(-3249.72 -1040)"/>
</svg>
