<svg xmlns="http://www.w3.org/2000/svg" width="32" height="32" viewBox="0 0 32 32">
  <metadata><?xpacket begin="﻿" id="W5M0MpCehiHzreSzNTczkc9d"?>
<x:xmpmeta xmlns:x="adobe:ns:meta/" x:xmptk="Adobe XMP Core 5.6-c138 79.159824, 2016/09/14-01:09:01        ">
   <rdf:RDF xmlns:rdf="http://www.w3.org/1999/02/22-rdf-syntax-ns#">
      <rdf:Description rdf:about=""/>
   </rdf:RDF>
</x:xmpmeta>
                                                                                                    
                                                                                                    
                                                                                                    
                                                                                                    
                                                                                                    
                                                                                                    
                                                                                                    
                                                                                                    
                                                                                                    
                                                                                                    
                                                                                                    
                                                                                                    
                                                                                                    
                                                                                                    
                                                                                                    
                                                                                                    
                                                                                                    
                                                                                                    
                                                                                                    
                                                                                                    
                           
<?xpacket end="w"?></metadata>
<defs>
    <style>
      .cls-1 {
        fill: #999;
        fill-rule: evenodd;
      }
    </style>
  </defs>
  <path id="椭圆_802" data-name="椭圆 802" class="cls-1" d="M4088.22,788.312a16,16,0,1,1,16-16A16,16,0,0,1,4088.22,788.312Zm0-30.016a14.016,14.016,0,1,0,14.01,14.016A14.02,14.02,0,0,0,4088.22,758.3Zm5.31,11.652-2.53-2.527V779a1,1,0,0,1-2,0v-13.96a0.98,0.98,0,0,1,1-1.039h0a1,1,0,0,1,.15.031,0.817,0.817,0,0,1,.57.282l4.22,4.223A1,1,0,0,1,4093.53,769.948ZM4086,780a1,1,0,0,1-.76-0.362l-4.2-4.2a1,1,0,1,1,1.41-1.414l2.55,2.543V765a1,1,0,1,1,2,0v14A1,1,0,0,1,4086,780Z" transform="translate(-4072.22 -756.313)"/>
</svg>
